<svg width="75" height="75" viewBox="0 0 75 75" fill="none" xmlns="http://www.w3.org/2000/svg">
<rect width="75" height="75" rx="20" fill="white"/>
<path d="M37.5 6.25C41.6038 6.25 45.6674 7.05831 49.4589 8.62876C53.2503 10.1992 56.6953 12.5011 59.5971 15.4029C62.4989 18.3047 64.8008 21.7497 66.3712 25.5411C67.9417 29.3326 68.75 33.3962 68.75 37.5C68.75 45.788 65.4576 53.7366 59.5971 59.5971C53.7366 65.4576 45.788 68.75 37.5 68.75C33.3962 68.75 29.3326 67.9417 25.5411 66.3712C21.7497 64.8008 18.3047 62.4989 15.4029 59.5971C9.5424 53.7366 6.25 45.788 6.25 37.5C6.25 29.212 9.5424 21.2634 15.4029 15.4029C21.2634 9.5424 29.212 6.25 37.5 6.25ZM34.375 21.875C32.7174 21.875 31.1277 22.5335 29.9556 23.7056C28.7835 24.8777 28.125 26.4674 28.125 28.125V46.875C28.125 48.5326 28.7835 50.1223 29.9556 51.2944C31.1277 52.4665 32.7174 53.125 34.375 53.125V59.375H40.625V53.125C42.2826 53.125 43.8723 52.4665 45.0444 51.2944C46.2165 50.1223 46.875 48.5326 46.875 46.875V28.125C46.875 26.4674 46.2165 24.8777 45.0444 23.7056C43.8723 22.5335 42.2826 21.875 40.625 21.875H34.375ZM34.375 28.125H40.625V46.875H34.375V28.125Z" fill="black"/>
</svg>
