<svg width="75" height="20" viewBox="0 0 75 20" fill="none" xmlns="http://www.w3.org/2000/svg">
<path d="M0.699219 19C0.699219 19 0.699219 13.0898 0.699219 1.26953C0.699219 1.26953 1.79688 1.26953 3.99219 1.26953C3.99219 1.26953 3.99219 7.17969 3.99219 19C3.99219 19 2.89453 19 0.699219 19ZM9.16016 19C9.16016 19 9.16016 14.1367 9.16016 4.41016C9.16016 4.41016 8.0625 4.41016 5.86719 4.41016C5.86719 4.41016 5.86719 3.36328 5.86719 1.26953C5.86719 1.26953 9.15625 1.26953 15.7344 1.26953C15.7344 1.26953 15.7344 2.31641 15.7344 4.41016C15.7344 4.41016 14.6367 4.41016 12.4414 4.41016C12.4414 4.41016 12.4414 9.27344 12.4414 19C12.4414 19 11.3477 19 9.16016 19ZM15.5117 13.5039C15.5117 13.5039 15.5117 12.5586 15.5117 10.668C15.5117 10.668 17.7305 10.668 22.168 10.668C22.168 10.668 22.168 11.6133 22.168 13.5039C22.168 13.5039 19.9492 13.5039 15.5117 13.5039ZM42.8984 16.3633C42.8984 16.3633 42.8984 17.3555 42.8984 19.3398C42.7734 19.3555 42.6211 19.3633 42.4414 19.3633C41.6914 19.3633 40.9961 19.25 40.3555 19.0234C39.7227 18.8047 39.0273 18.4375 38.2695 17.9219C37.6289 18.3594 36.875 18.7031 36.0078 18.9531C35.1406 19.1953 34.2617 19.3164 33.3711 19.3164C32.0508 19.3164 30.793 19.0781 29.5977 18.6016C28.4102 18.1172 27.3867 17.4648 26.5273 16.6445C25.6758 15.8242 25 14.8477 24.5 13.7148C24 12.582 23.75 11.3828 23.75 10.1172C23.75 8.85156 23.9922 7.65234 24.4766 6.51953C24.9688 5.38672 25.6328 4.41406 26.4688 3.60156C27.3047 2.78906 28.3047 2.14453 29.4688 1.66797C30.6406 1.19141 31.8789 0.953125 33.1836 0.953125C34.5117 0.953125 35.7578 1.1875 36.9219 1.65625C38.0859 2.125 39.082 2.76953 39.9102 3.58984C40.7383 4.40234 41.3906 5.38281 41.8672 6.53125C42.3438 7.67969 42.582 8.90625 42.582 10.2109C42.582 12.5156 41.8711 14.4141 40.4492 15.9062C41.1211 16.2578 41.7148 16.4336 42.2305 16.4336C42.3633 16.4336 42.5859 16.4102 42.8984 16.3633ZM35.4805 15.6836C34.457 14.8633 33.4961 14.2734 32.5977 13.9141C31.707 13.5469 30.7734 13.3633 29.7969 13.3633C29.3125 13.3633 28.7422 13.4258 28.0859 13.5508C28.7734 14.4414 29.543 15.0977 30.3945 15.5195C31.2461 15.9336 32.2305 16.1406 33.3477 16.1406C33.8086 16.1406 34.1875 16.1094 34.4844 16.0469C34.7812 15.9844 35.1133 15.8633 35.4805 15.6836ZM37.8359 14.1016C38.7969 13.1172 39.2773 11.8398 39.2773 10.2695C39.2773 8.50391 38.6953 7.03906 37.5312 5.875C36.3672 4.70312 34.9102 4.11719 33.1602 4.11719C31.4102 4.11719 29.9492 4.69531 28.7773 5.85156C27.6133 7 27.0312 8.4375 27.0312 10.1641C27.0312 10.4375 27.0469 10.7109 27.0781 10.9844C27.9219 10.7734 28.8359 10.668 29.8203 10.668C31.2344 10.668 32.6523 10.9727 34.0742 11.582C35.5039 12.1914 36.7578 13.0312 37.8359 14.1016ZM56.7031 5.69922C56.7031 5.69922 56.7031 10.1328 56.7031 19C56.7031 19 55.7188 19 53.75 19C53.75 19 53.75 18.5742 53.75 17.7227C53.1406 18.3086 52.5508 18.7227 51.9805 18.9648C51.418 19.1992 50.7383 19.3164 49.9414 19.3164C49.043 19.3164 48.2383 19.1367 47.5273 18.7773C46.8164 18.4102 46.2422 17.8906 45.8047 17.2188C45.4609 16.6797 45.2188 16.0859 45.0781 15.4375C44.9375 14.7891 44.8672 13.9219 44.8672 12.8359V5.69922H48.0664V12.2031C48.0664 13.125 48.1172 13.8477 48.2188 14.3711C48.3203 14.8867 48.4922 15.293 48.7344 15.5898C49.1953 16.1211 49.8125 16.3867 50.5859 16.3867C51.1406 16.3867 51.6328 16.2773 52.0625 16.0586C52.5 15.832 52.832 15.5156 53.0586 15.1094C53.2305 14.8125 53.3477 14.4297 53.4102 13.9609C53.4805 13.4844 53.5156 12.8203 53.5156 11.9688V5.69922H56.7031ZM59.293 19C59.293 19 59.293 14.5664 59.293 5.69922C59.293 5.69922 60.3555 5.69922 62.4805 5.69922C62.4805 5.69922 62.4805 10.1328 62.4805 19C62.4805 19 61.418 19 59.293 19ZM59.293 4.26953C59.293 4.26953 59.293 3.26953 59.293 1.26953C59.293 1.26953 60.3555 1.26953 62.4805 1.26953C62.4805 1.26953 62.4805 2.26953 62.4805 4.26953C62.4805 4.26953 61.418 4.26953 59.293 4.26953ZM64.4961 19C64.4961 19 64.4961 18.0469 64.4961 16.1406C64.4961 16.1406 66.4492 13.6133 70.3555 8.55859C70.3555 8.55859 68.6289 8.55859 65.1758 8.55859C65.1758 8.55859 65.1758 7.60547 65.1758 5.69922C65.1758 5.69922 68.1758 5.69922 74.1758 5.69922C74.1758 5.69922 74.1758 6.65234 74.1758 8.55859C74.1758 8.55859 72.2227 11.0859 68.3164 16.1406C68.3164 16.1406 70.4219 16.1406 74.6328 16.1406C74.6328 16.1406 74.6328 17.0938 74.6328 19C74.6328 19 71.2539 19 64.4961 19Z" fill="black"/>
</svg>
